<svg width="22" height="34" viewBox="0 0 22 34" fill="none" xmlns="http://www.w3.org/2000/svg">
<path d="M21.1264 1.40824C21.1264 1.16544 21.03 0.932584 20.8583 0.760898C20.6866 0.589212 20.4537 0.49276 20.2109 0.49276H15.6335C13.3286 0.377942 11.0719 1.18009 9.35648 2.72393C7.6411 4.26778 6.6065 6.42781 6.47872 8.73208V13.6757H1.90132C1.65852 13.6757 1.42566 13.7721 1.25398 13.9438C1.08229 14.1155 0.98584 14.3484 0.98584 14.5912V19.3517C0.98584 19.5945 1.08229 19.8273 1.25398 19.999C1.42566 20.1707 1.65852 20.2671 1.90132 20.2671H6.47872V32.5346C6.47872 32.7774 6.57517 33.0102 6.74686 33.1819C6.91855 33.3536 7.1514 33.4501 7.3942 33.4501H12.8871C13.1299 33.4501 13.3627 33.3536 13.5344 33.1819C13.7061 33.0102 13.8026 32.7774 13.8026 32.5346V20.2671H18.5997C18.8033 20.2701 19.002 20.205 19.1645 20.0823C19.327 19.9596 19.4439 19.7863 19.4969 19.5897L20.8151 14.8292C20.8516 14.6939 20.8565 14.5521 20.8295 14.4146C20.8024 14.2772 20.7443 14.1478 20.6594 14.0363C20.5745 13.9249 20.4651 13.8344 20.3398 13.7719C20.2144 13.7094 20.0764 13.6765 19.9363 13.6757H13.8026V8.73208C13.8481 8.27888 14.0609 7.85892 14.3995 7.55421C14.7381 7.24951 15.178 7.08194 15.6335 7.08422H20.2109C20.4537 7.08422 20.6866 6.98777 20.8583 6.81608C21.03 6.64439 21.1264 6.41154 21.1264 6.16874V1.40824Z" fill="#D9D9D9"/>
</svg>
