<svg width="81" height="62" viewBox="0 0 81 62" fill="none" xmlns="http://www.w3.org/2000/svg">
<path d="M77.9308 18.5951C77.5898 20.6197 76.7753 22.5351 75.5538 24.1853C74.1015 26.1647 72.1268 27.7007 69.8509 28.6213C67.575 29.5419 65.0877 29.8106 62.6677 29.3974C60.6431 29.0563 58.7277 28.2419 57.0775 27.0203L47.8393 28.4379L52.2482 20.1968C51.6449 18.2343 51.5138 16.1571 51.8654 14.1343C52.2804 11.7146 53.361 9.45822 54.986 7.61794C56.611 5.77766 58.7162 4.42614 61.0659 3.71476C63.0284 3.1115 65.1057 2.98033 67.1285 3.33194L67.8951 3.46314C71.0608 4.18638 73.8485 6.05188 75.7244 8.70245C77.6003 11.353 78.4326 14.6024 78.062 17.8284L77.9308 18.5951Z" stroke="#898989" stroke-width="2" stroke-linecap="round" stroke-linejoin="round"/>
<path d="M45.8337 55.75V51.5833C45.8337 49.3732 44.9732 47.2536 43.4417 45.6908C41.9102 44.128 39.8329 43.25 37.667 43.25H21.3337C19.1677 43.25 17.0905 44.128 15.559 45.6908C14.0274 47.2536 13.167 49.3732 13.167 51.5833V55.75" stroke="#898989" stroke-width="3" stroke-linecap="round" stroke-linejoin="round"/>
<path d="M29.4997 34.9167C34.01 34.9167 37.6663 31.1857 37.6663 26.5833C37.6663 21.981 34.01 18.25 29.4997 18.25C24.9893 18.25 21.333 21.981 21.333 26.5833C21.333 31.1857 24.9893 34.9167 29.4997 34.9167Z" stroke="#898989" stroke-width="3" stroke-linecap="round" stroke-linejoin="round"/>
</svg>
