<svg width="65" height="62" viewBox="0 0 65 62" fill="none" xmlns="http://www.w3.org/2000/svg">
<path d="M1 27L13.8963 39.8963" stroke="#898989" stroke-width="2" stroke-linecap="round" stroke-linejoin="round"/>
<path d="M18 55.9001L29.9001 44L35.0001 49.1L23.1 61.0001L18 55.9001Z" stroke="#858585" stroke-width="2" stroke-linecap="round" stroke-linejoin="round"/>
<path d="M28.2001 45.7001L25.6501 32.95L1 27L6.95003 51.6501L19.7001 54.2001L28.2001 45.7001Z" stroke="#989898" stroke-width="2" stroke-linecap="round" stroke-linejoin="round"/>
<path d="M16.3004 45.6999C18.1782 45.6999 19.7004 44.1777 19.7004 42.2999C19.7004 40.4221 18.1782 38.8999 16.3004 38.8999C14.4226 38.8999 12.9004 40.4221 12.9004 42.2999C12.9004 44.1777 14.4226 45.6999 16.3004 45.6999Z" stroke="#898989" stroke-width="2" stroke-linecap="round" stroke-linejoin="round"/>
<path d="M63.6667 1L41.2083 23.4583L31 13.25" stroke="#898989" stroke-width="2" stroke-linecap="round" stroke-linejoin="round"/>
</svg>
