<svg width="30" height="30" viewBox="0 0 30 30" fill="none" xmlns="http://www.w3.org/2000/svg">
<path d="M14.5297 0.672607C10.5799 0.672607 10.0876 0.69168 8.54181 0.757072C6.98966 0.833362 5.93976 1.07404 5.01337 1.4337C4.05793 1.80788 3.24416 2.30468 2.44039 3.11299C1.63116 3.91677 1.12983 4.73053 0.761088 5.68598C0.401433 6.61236 0.160755 7.66227 0.0844644 9.21441C0.0145315 10.7611 0 11.2525 0 15.2023C0 19.1522 0.0190726 19.6444 0.0844644 21.1902C0.160755 22.7378 0.401433 23.7922 0.761088 24.7186C1.13527 25.6741 1.63207 26.4878 2.44039 27.2916C3.24416 28.1008 4.05793 28.6022 5.01337 28.9709C5.93976 29.326 6.9942 29.5713 8.54181 29.6475C10.0885 29.7175 10.5799 29.732 14.5297 29.732C18.4795 29.732 18.9718 29.7129 20.5176 29.6475C22.0652 29.5713 23.1196 29.3251 24.046 28.9709C25.0015 28.5967 25.8152 28.0999 26.619 27.2916C27.4282 26.4878 27.9296 25.6786 28.2983 24.7186C28.6534 23.7922 28.8986 22.7378 28.9749 21.1902C29.0449 19.6435 29.0594 19.1522 29.0594 15.2023C29.0594 11.2525 29.0403 10.7602 28.9749 9.21441C28.8986 7.66681 28.6525 6.60692 28.2983 5.68598C27.9241 4.73053 27.4273 3.91677 26.619 3.11299C25.8152 2.30377 25.006 1.80243 24.046 1.4337C23.1196 1.07404 22.0652 0.833362 20.5176 0.757072C18.9709 0.687139 18.4795 0.672607 14.5297 0.672607V0.672607ZM14.5297 3.28828C18.4087 3.28828 18.8719 3.30735 20.405 3.37274C21.8191 3.43904 22.5892 3.67518 23.1006 3.87499C23.7826 4.13928 24.2595 4.45171 24.7753 4.96213C25.2812 5.46801 25.5936 5.95027 25.8579 6.63235C26.0577 7.14367 26.2939 7.91384 26.3602 9.32794C26.4256 10.861 26.4446 11.3251 26.4446 15.2032C26.4446 19.0813 26.4256 19.5454 26.3547 21.0785C26.2784 22.4926 26.0423 23.2628 25.8434 23.7741C25.5682 24.4562 25.2612 24.933 24.7544 25.4488C24.2431 25.9547 23.7563 26.2671 23.0797 26.5314C22.5747 26.7312 21.7936 26.9674 20.3741 27.0337C18.8328 27.0991 18.3787 27.1182 14.4897 27.1182C10.6007 27.1182 10.1475 27.0991 8.60447 27.0282C7.19038 26.9519 6.41021 26.7158 5.89889 26.5169C5.20864 26.2417 4.73546 25.9347 4.22867 25.428C3.71734 24.9166 3.3922 24.4298 3.14153 23.7532C2.93809 23.2482 2.70559 22.4672 2.6302 21.0476C2.57844 19.5245 2.55391 19.0523 2.55391 15.1814C2.55391 11.3124 2.57844 10.8392 2.6302 9.29706C2.70559 7.87751 2.93809 7.09826 3.14153 6.59148C3.3922 5.90032 3.71825 5.42805 4.22867 4.91672C4.73455 4.41084 5.20864 4.08388 5.89889 3.82776C6.41021 3.62886 7.1713 3.39273 8.59085 3.32188C10.1321 3.26648 10.5862 3.2465 14.4698 3.2465L14.5297 3.28828ZM14.5297 7.74492C10.4055 7.74492 7.07049 11.0844 7.07049 15.2041C7.07049 19.3284 10.41 22.6633 14.5297 22.6633C18.6539 22.6633 21.9889 19.3238 21.9889 15.2041C21.9889 11.0799 18.6494 7.74492 14.5297 7.74492ZM14.5297 20.0477C11.8523 20.0477 9.68616 17.8816 9.68616 15.2041C9.68616 12.5267 11.8523 10.3606 14.5297 10.3606C17.2071 10.3606 19.3732 12.5267 19.3732 15.2041C19.3732 17.8816 17.2071 20.0477 14.5297 20.0477ZM24.0333 7.44702C24.0333 8.41246 23.2477 9.19171 22.2868 9.19171C21.3214 9.19171 20.5421 8.41155 20.5421 7.44702C20.5421 6.48703 21.3268 5.70596 22.2868 5.70596C23.2468 5.70596 24.0333 6.48703 24.0333 7.44702Z" fill="#D9D9D9"/>
</svg>
