<svg width="33" height="30" viewBox="0 0 33 30" fill="none" xmlns="http://www.w3.org/2000/svg">
<path d="M9.68611 29.1542C12.3076 29.242 14.9201 28.8033 17.3691 27.8642C19.8182 26.925 22.0541 25.5045 23.9448 23.6865C25.8355 21.8685 27.3426 19.69 28.3771 17.2796C29.4115 14.8692 29.9522 12.276 29.9673 9.65306C31.1687 8.16638 32.0608 6.45456 32.5911 4.61821C32.6307 4.47312 32.6275 4.31968 32.5819 4.17637C32.5363 4.03306 32.4503 3.90598 32.3341 3.81044C32.218 3.7149 32.0767 3.65498 31.9273 3.63788C31.7779 3.62078 31.6267 3.64724 31.492 3.71406C30.8635 4.0166 30.1559 4.11433 29.4689 3.99347C28.7819 3.87261 28.1502 3.53926 27.6627 3.04039C27.0403 2.35887 26.2875 1.80921 25.4488 1.42396C24.6101 1.03872 23.7027 0.825737 22.7802 0.797632C21.8577 0.769527 20.9389 0.926874 20.0784 1.26035C19.2178 1.59382 18.4329 2.09664 17.7702 2.739C16.8629 3.61772 16.1983 4.71623 15.8411 5.92776C15.4838 7.13929 15.4461 8.42263 15.7315 9.65306C9.79248 10.0076 5.71496 7.18882 2.45294 3.32404C2.35494 3.21306 2.22675 3.13302 2.08402 3.09369C1.94129 3.05437 1.79019 3.05745 1.64918 3.10257C1.50817 3.1477 1.38335 3.2329 1.28997 3.34779C1.19659 3.46267 1.13868 3.60227 1.12331 3.74952C0.50188 7.19666 0.950159 10.7514 2.40794 13.9364C3.86572 17.1213 6.2632 19.7839 9.27836 21.5665C7.25668 23.8851 4.41761 25.3332 1.35378 25.6086C1.18964 25.6358 1.03811 25.7137 0.920415 25.8313C0.802715 25.9489 0.724732 26.1003 0.697379 26.2644C0.670025 26.4286 0.694671 26.5971 0.767866 26.7466C0.841061 26.896 0.959143 27.0188 1.10558 27.0978C3.77108 28.4298 6.70638 29.1333 9.68611 29.1542" fill="#D9D9D9"/>
</svg>
