<svg width="17" height="17" viewBox="0 0 17 17" fill="none" xmlns="http://www.w3.org/2000/svg">
<path d="M8.18015 0C5.9564 0 5.67927 0.0107378 4.80899 0.0475531C3.93514 0.0905042 3.34405 0.226005 2.8225 0.428489C2.28459 0.639154 1.82645 0.918848 1.37393 1.37393C0.918336 1.82645 0.636086 2.28459 0.428489 2.8225C0.226005 3.34405 0.0905042 3.93514 0.0475531 4.80899C0.00818117 5.67978 0 5.9564 0 8.18015C0 10.4039 0.0107378 10.681 0.0475531 11.5513C0.0905042 12.4226 0.226005 13.0162 0.428489 13.5378C0.639154 14.0757 0.918848 14.5339 1.37393 14.9864C1.82645 15.442 2.28459 15.7242 2.8225 15.9318C3.34405 16.1317 3.9377 16.2698 4.80899 16.3127C5.67978 16.3521 5.9564 16.3603 8.18015 16.3603C10.4039 16.3603 10.681 16.3496 11.5513 16.3127C12.4226 16.2698 13.0162 16.1312 13.5378 15.9318C14.0757 15.7211 14.5339 15.4415 14.9864 14.9864C15.442 14.5339 15.7242 14.0783 15.9318 13.5378C16.1317 13.0162 16.2698 12.4226 16.3127 11.5513C16.3521 10.6805 16.3603 10.4039 16.3603 8.18015C16.3603 5.9564 16.3496 5.67927 16.3127 4.80899C16.2698 3.9377 16.1312 3.34099 15.9318 2.8225C15.7211 2.28459 15.4415 1.82645 14.9864 1.37393C14.5339 0.918337 14.0783 0.636086 13.5378 0.428489C13.0162 0.226005 12.4226 0.0905042 11.5513 0.0475531C10.6805 0.00818117 10.4039 0 8.18015 0V0ZM8.18015 1.47261C10.364 1.47261 10.6248 1.48335 11.4879 1.52016C12.284 1.55749 12.7176 1.69043 13.0055 1.80293C13.3895 1.95172 13.658 2.12762 13.9484 2.41498C14.2332 2.69979 14.4091 2.9713 14.5579 3.3553C14.6704 3.64318 14.8033 4.07678 14.8406 4.87291C14.8775 5.73602 14.8882 5.99731 14.8882 8.18066C14.8882 10.364 14.8775 10.6253 14.8376 11.4884C14.7946 12.2845 14.6617 12.7181 14.5497 13.006C14.3948 13.39 14.2219 13.6585 13.9366 13.9489C13.6487 14.2337 13.3747 14.4096 12.9937 14.5584C12.7094 14.6709 12.2697 14.8038 11.4705 14.8412C10.6028 14.878 10.3471 14.8887 8.15765 14.8887C5.96816 14.8887 5.71301 14.878 4.84428 14.8381C4.04815 14.7951 3.60892 14.6622 3.32104 14.5502C2.93244 14.3953 2.66604 14.2225 2.38072 13.9371C2.09285 13.6493 1.90979 13.3752 1.76867 12.9943C1.65413 12.71 1.52323 12.2702 1.48079 11.471C1.45165 10.6135 1.43784 10.3476 1.43784 8.16839C1.43784 5.99015 1.45165 5.72375 1.48079 4.85553C1.52323 4.05633 1.65413 3.61761 1.76867 3.33229C1.90979 2.94318 2.09336 2.67729 2.38072 2.38941C2.66553 2.10461 2.93244 1.92053 3.32104 1.77634C3.60892 1.66436 4.03741 1.53141 4.83661 1.49153C5.70432 1.46034 5.95998 1.44909 8.1464 1.44909L8.18015 1.47261ZM8.18015 3.98167C5.85823 3.98167 3.98065 5.86181 3.98065 8.18117C3.98065 10.5031 5.86079 12.3807 8.18015 12.3807C10.5021 12.3807 12.3796 10.5005 12.3796 8.18117C12.3796 5.85925 10.4995 3.98167 8.18015 3.98167ZM8.18015 10.9081C6.67277 10.9081 5.45326 9.68855 5.45326 8.18117C5.45326 6.67379 6.67277 5.45428 8.18015 5.45428C9.68753 5.45428 10.907 6.67379 10.907 8.18117C10.907 9.68855 9.68753 10.9081 8.18015 10.9081ZM13.5306 3.81396C13.5306 4.3575 13.0883 4.79621 12.5474 4.79621C12.0038 4.79621 11.5651 4.35699 11.5651 3.81396C11.5651 3.27349 12.0069 2.83375 12.5474 2.83375C13.0878 2.83375 13.5306 3.27349 13.5306 3.81396Z" fill="#E7E7E7"/>
</svg>
