<svg width="25" height="25" viewBox="0 0 25 25" fill="none" xmlns="http://www.w3.org/2000/svg">
<path d="M17.5241 3.60793C17.5241 3.47124 17.4698 3.34014 17.3731 3.24348C17.2765 3.14682 17.1454 3.09252 17.0087 3.09252H14.4316C13.134 3.02788 11.8634 3.47948 10.8977 4.34866C9.93194 5.21784 9.34946 6.43393 9.27752 7.73122V10.5144H6.70047C6.56377 10.5144 6.43268 10.5687 6.33602 10.6654C6.23936 10.7621 6.18506 10.8932 6.18506 11.0298V13.71C6.18506 13.8467 6.23936 13.9778 6.33602 14.0744C6.43268 14.1711 6.56377 14.2254 6.70047 14.2254H9.27752V21.1319C9.27752 21.2686 9.33183 21.3997 9.42848 21.4964C9.52514 21.593 9.65624 21.6473 9.79294 21.6473H12.8854C13.0221 21.6473 13.1532 21.593 13.2499 21.4964C13.3465 21.3997 13.4008 21.2686 13.4008 21.1319V14.2254H16.1016C16.2162 14.227 16.3281 14.1904 16.4196 14.1214C16.511 14.0523 16.5769 13.9547 16.6067 13.844L17.3489 11.1639C17.3694 11.0877 17.3721 11.0079 17.3569 10.9305C17.3417 10.8531 17.3089 10.7802 17.2612 10.7175C17.2134 10.6547 17.1518 10.6038 17.0812 10.5686C17.0106 10.5334 16.9329 10.5149 16.8541 10.5144H13.4008V7.73122C13.4265 7.47607 13.5463 7.23963 13.7369 7.06808C13.9275 6.89654 14.1752 6.80219 14.4316 6.80348H17.0087C17.1454 6.80348 17.2765 6.74918 17.3731 6.65252C17.4698 6.55586 17.5241 6.42476 17.5241 6.28807V3.60793Z" fill="#E7E7E7"/>
</svg>
