<svg width="40" height="28" viewBox="0 0 40 28" fill="none" xmlns="http://www.w3.org/2000/svg">
<path d="M38.2451 4.86836C37.7811 3.22683 36.4966 1.93939 34.8421 1.48429C31.7957 0.672646 19.5489 0.672646 19.5489 0.672646C19.5489 0.672646 7.32532 0.653176 4.24714 1.48429C2.60121 1.94061 1.3106 3.22683 0.851498 4.86836C0.273958 7.97986 -0.0129806 11.1291 0.000450545 14.2929C-0.00565453 17.4361 0.280063 20.5804 0.851498 23.6724C1.3106 25.314 2.60121 26.6014 4.24714 27.0638C7.29357 27.8755 19.5489 27.8755 19.5489 27.8755C19.5489 27.8755 31.7652 27.8755 34.8421 27.0638C36.4966 26.6014 37.7811 25.3152 38.2451 23.6724C38.8055 20.5804 39.079 17.4361 39.0595 14.2929C39.079 11.1291 38.8116 7.97986 38.2451 4.86836ZM15.6368 20.118V8.44227L25.831 14.2929L15.6368 20.118Z" fill="#D9D9D9"/>
</svg>
