<svg width="24" height="24" viewBox="0 0 24 24" fill="none" xmlns="http://www.w3.org/2000/svg">
<path d="M8.06452 19.962C9.54041 20.0114 11.0112 19.7645 12.39 19.2357C13.7688 18.707 15.0277 17.9072 16.0921 16.8837C17.1566 15.8602 18.0051 14.6337 18.5874 13.2767C19.1698 11.9196 19.4742 10.4597 19.4828 8.98297C20.1591 8.14598 20.6614 7.18223 20.9599 6.14837C20.9822 6.06669 20.9804 5.9803 20.9548 5.89962C20.9291 5.81894 20.8806 5.74739 20.8153 5.6936C20.7499 5.63982 20.6703 5.60608 20.5862 5.59645C20.5021 5.58682 20.417 5.60172 20.3411 5.63934C19.9873 5.80967 19.5889 5.86469 19.2021 5.79665C18.8154 5.72861 18.4597 5.54093 18.1852 5.26007C17.8349 4.87638 17.411 4.56692 16.9389 4.35003C16.4667 4.13314 15.9558 4.01323 15.4364 3.99741C14.9171 3.98158 14.3998 4.07017 13.9153 4.25791C13.4308 4.44566 12.9889 4.72874 12.6158 5.09039C12.105 5.5851 11.7309 6.20356 11.5297 6.88564C11.3286 7.56773 11.3073 8.29024 11.468 8.98297C8.12441 9.18259 5.82879 7.59561 3.99229 5.41976C3.93711 5.35728 3.86494 5.31222 3.78459 5.29008C3.70423 5.26794 3.61916 5.26967 3.53977 5.29508C3.46039 5.32048 3.39012 5.36845 3.33754 5.43313C3.28497 5.49781 3.25236 5.5764 3.24371 5.6593C2.89385 7.60003 3.14623 9.60134 3.96695 11.3944C4.78768 13.1875 6.13744 14.6866 7.83496 15.6902C6.69677 16.9955 5.09839 17.8108 3.37347 17.9658C3.28105 17.9812 3.19575 18.025 3.12948 18.0912C3.06322 18.1574 3.01931 18.2427 3.00391 18.3351C2.98851 18.4275 3.00239 18.5224 3.0436 18.6065C3.08481 18.6906 3.15129 18.7598 3.23373 18.8042C4.73439 19.5542 6.38695 19.9503 8.06452 19.962Z" fill="#E7E7E7"/>
</svg>
